<svg xmlns="http://www.w3.org/2000/svg" xmlns:xlink="http://www.w3.org/1999/xlink" width="1080" zoomAndPan="magnify" viewBox="0 0 810 809.999993" height="1080" preserveAspectRatio="xMidYMid meet" version="1.0"><defs><g/><clipPath id="0502060b83"><path d="M 238.273438 222.550781 L 570.238281 222.550781 L 570.238281 554.515625 L 238.273438 554.515625 Z M 238.273438 222.550781 " clip-rule="nonzero"/></clipPath><clipPath id="a5af2f02ba"><path d="M 570.238281 388.535156 C 570.238281 391.25 570.171875 393.964844 570.035156 396.679688 C 569.902344 399.390625 569.703125 402.101562 569.4375 404.804688 C 569.171875 407.507812 568.839844 410.203125 568.441406 412.890625 C 568.042969 415.574219 567.578125 418.25 567.046875 420.914062 C 566.515625 423.578125 565.921875 426.230469 565.261719 428.863281 C 564.601562 431.5 563.878906 434.117188 563.089844 436.714844 C 562.300781 439.316406 561.449219 441.894531 560.535156 444.453125 C 559.617188 447.007812 558.640625 449.542969 557.601562 452.054688 C 556.5625 454.5625 555.460938 457.046875 554.300781 459.5 C 553.140625 461.957031 551.917969 464.382812 550.636719 466.777344 C 549.355469 469.171875 548.019531 471.535156 546.621094 473.867188 C 545.226562 476.195312 543.773438 478.492188 542.261719 480.75 C 540.753906 483.007812 539.191406 485.226562 537.574219 487.410156 C 535.953125 489.589844 534.285156 491.730469 532.558594 493.832031 C 530.835938 495.933594 529.0625 497.988281 527.238281 500 C 525.414062 502.015625 523.542969 503.980469 521.621094 505.902344 C 519.699219 507.820312 517.734375 509.695312 515.722656 511.519531 C 513.707031 513.34375 511.652344 515.117188 509.550781 516.839844 C 507.453125 518.5625 505.3125 520.234375 503.128906 521.851562 C 500.949219 523.46875 498.726562 525.035156 496.46875 526.542969 C 494.210938 528.050781 491.917969 529.503906 489.585938 530.902344 C 487.257812 532.296875 484.894531 533.636719 482.496094 534.917969 C 480.101562 536.199219 477.675781 537.417969 475.222656 538.582031 C 472.765625 539.742188 470.28125 540.84375 467.773438 541.882812 C 465.261719 542.921875 462.730469 543.898438 460.171875 544.8125 C 457.613281 545.730469 455.035156 546.582031 452.4375 547.367188 C 449.835938 548.15625 447.21875 548.882812 444.585938 549.542969 C 441.949219 550.203125 439.300781 550.796875 436.636719 551.328125 C 433.972656 551.855469 431.296875 552.320312 428.609375 552.71875 C 425.921875 553.117188 423.226562 553.449219 420.523438 553.71875 C 417.820312 553.984375 415.113281 554.183594 412.398438 554.316406 C 409.6875 554.449219 406.972656 554.515625 404.253906 554.515625 C 401.539062 554.515625 398.824219 554.449219 396.109375 554.316406 C 393.398438 554.183594 390.6875 553.984375 387.984375 553.71875 C 385.28125 553.449219 382.585938 553.117188 379.898438 552.71875 C 377.214844 552.320312 374.539062 551.855469 371.875 551.328125 C 369.210938 550.796875 366.558594 550.203125 363.925781 549.542969 C 361.289062 548.882812 358.671875 548.15625 356.074219 547.371094 C 353.472656 546.582031 350.894531 545.730469 348.335938 544.8125 C 345.78125 543.898438 343.246094 542.921875 340.734375 541.882812 C 338.226562 540.84375 335.742188 539.742188 333.289062 538.582031 C 330.832031 537.417969 328.40625 536.199219 326.011719 534.917969 C 323.617188 533.636719 321.253906 532.296875 318.921875 530.902344 C 316.59375 529.503906 314.296875 528.050781 312.039062 526.542969 C 309.78125 525.035156 307.5625 523.46875 305.378906 521.851562 C 303.199219 520.234375 301.058594 518.5625 298.957031 516.839844 C 296.855469 515.117188 294.800781 513.34375 292.789062 511.519531 C 290.773438 509.695312 288.808594 507.820312 286.886719 505.902344 C 284.96875 503.980469 283.09375 502.015625 281.269531 500 C 279.445312 497.988281 277.671875 495.933594 275.949219 493.832031 C 274.226562 491.730469 272.554688 489.589844 270.9375 487.410156 C 269.320312 485.226562 267.753906 483.007812 266.246094 480.75 C 264.738281 478.492188 263.285156 476.195312 261.886719 473.867188 C 260.492188 471.535156 259.152344 469.171875 257.871094 466.777344 C 256.589844 464.382812 255.371094 461.957031 254.207031 459.5 C 253.046875 457.046875 251.945312 454.5625 250.90625 452.054688 C 249.867188 449.542969 248.890625 447.007812 247.976562 444.453125 C 247.058594 441.894531 246.207031 439.316406 245.421875 436.714844 C 244.632812 434.117188 243.90625 431.5 243.246094 428.863281 C 242.585938 426.230469 241.992188 423.578125 241.460938 420.914062 C 240.933594 418.25 240.46875 415.574219 240.070312 412.890625 C 239.671875 410.203125 239.339844 407.507812 239.070312 404.804688 C 238.804688 402.101562 238.605469 399.390625 238.472656 396.679688 C 238.339844 393.964844 238.273438 391.25 238.273438 388.535156 C 238.273438 385.816406 238.339844 383.101562 238.472656 380.390625 C 238.605469 377.675781 238.804688 374.96875 239.070312 372.265625 C 239.339844 369.5625 239.671875 366.867188 240.070312 364.179688 C 240.46875 361.492188 240.933594 358.816406 241.460938 356.152344 C 241.992188 353.488281 242.585938 350.839844 243.246094 348.203125 C 243.90625 345.570312 244.632812 342.953125 245.421875 340.351562 C 246.207031 337.753906 247.058594 335.175781 247.976562 332.617188 C 248.890625 330.058594 249.867188 327.527344 250.90625 325.015625 C 251.945312 322.507812 253.046875 320.023438 254.207031 317.566406 C 255.371094 315.113281 256.589844 312.6875 257.871094 310.292969 C 259.152344 307.894531 260.492188 305.53125 261.886719 303.203125 C 263.285156 300.871094 264.738281 298.578125 266.246094 296.320312 C 267.753906 294.0625 269.320312 291.839844 270.9375 289.660156 C 272.554688 287.476562 274.226562 285.335938 275.949219 283.238281 C 277.671875 281.136719 279.445312 279.082031 281.269531 277.066406 C 283.09375 275.054688 284.96875 273.089844 286.886719 271.167969 C 288.808594 269.246094 290.773438 267.375 292.789062 265.550781 C 294.800781 263.726562 296.855469 261.953125 298.957031 260.230469 C 301.058594 258.503906 303.199219 256.835938 305.378906 255.214844 C 307.5625 253.597656 309.78125 252.035156 312.039062 250.527344 C 314.296875 249.015625 316.59375 247.5625 318.921875 246.167969 C 321.253906 244.769531 323.617188 243.433594 326.011719 242.152344 C 328.40625 240.871094 330.832031 239.648438 333.289062 238.488281 C 335.742188 237.328125 338.226562 236.226562 340.734375 235.1875 C 343.246094 234.148438 345.78125 233.171875 348.335938 232.253906 C 350.894531 231.339844 353.472656 230.488281 356.074219 229.699219 C 358.671875 228.910156 361.289062 228.1875 363.925781 227.527344 C 366.558594 226.867188 369.210938 226.273438 371.875 225.742188 C 374.539062 225.210938 377.214844 224.746094 379.898438 224.347656 C 382.585938 223.949219 385.28125 223.617188 387.984375 223.351562 C 390.6875 223.085938 393.398438 222.886719 396.109375 222.753906 C 398.824219 222.617188 401.539062 222.550781 404.253906 222.550781 C 406.972656 222.550781 409.6875 222.617188 412.398438 222.753906 C 415.113281 222.886719 417.820312 223.085938 420.523438 223.351562 C 423.226562 223.617188 425.921875 223.949219 428.609375 224.347656 C 431.296875 224.746094 433.972656 225.210938 436.636719 225.742188 C 439.300781 226.273438 441.949219 226.867188 444.585938 227.527344 C 447.21875 228.1875 449.835938 228.910156 452.4375 229.699219 C 455.035156 230.488281 457.613281 231.339844 460.171875 232.253906 C 462.730469 233.171875 465.261719 234.148438 467.773438 235.1875 C 470.28125 236.226562 472.765625 237.328125 475.222656 238.488281 C 477.675781 239.648438 480.101562 240.871094 482.496094 242.152344 C 484.894531 243.433594 487.257812 244.769531 489.585938 246.167969 C 491.917969 247.5625 494.210938 249.015625 496.46875 250.527344 C 498.726562 252.035156 500.949219 253.597656 503.128906 255.214844 C 505.3125 256.835938 507.453125 258.503906 509.550781 260.230469 C 511.652344 261.953125 513.707031 263.726562 515.722656 265.550781 C 517.734375 267.375 519.699219 269.246094 521.621094 271.167969 C 523.542969 273.089844 525.414062 275.054688 527.238281 277.066406 C 529.0625 279.082031 530.835938 281.136719 532.558594 283.238281 C 534.285156 285.335938 535.953125 287.476562 537.574219 289.660156 C 539.191406 291.839844 540.753906 294.0625 542.261719 296.320312 C 543.773438 298.578125 545.226562 300.871094 546.621094 303.203125 C 548.019531 305.53125 549.355469 307.894531 550.636719 310.292969 C 551.917969 312.6875 553.140625 315.113281 554.300781 317.566406 C 555.460938 320.023438 556.5625 322.507812 557.601562 325.015625 C 558.640625 327.527344 559.617188 330.058594 560.535156 332.617188 C 561.449219 335.175781 562.300781 337.753906 563.089844 340.351562 C 563.878906 342.953125 564.601562 345.570312 565.261719 348.203125 C 565.921875 350.839844 566.515625 353.488281 567.046875 356.152344 C 567.578125 358.816406 568.042969 361.492188 568.441406 364.179688 C 568.839844 366.867188 569.171875 369.5625 569.4375 372.265625 C 569.703125 374.96875 569.902344 377.675781 570.035156 380.390625 C 570.171875 383.101562 570.238281 385.816406 570.238281 388.535156 Z M 570.238281 388.535156 " clip-rule="nonzero"/></clipPath><linearGradient x1="-0.0000000398693" gradientTransform="matrix(331.963807, 0, 0, 331.963807, 238.272831, 222.552508)" y1="-0.0000000394784" x2="1.004902" gradientUnits="userSpaceOnUse" y2="0.995049" id="bd90df60cb"><stop stop-opacity="1" stop-color="rgb(32.199097%, 44.299316%, 100%)" offset="0"/><stop stop-opacity="1" stop-color="rgb(32.159424%, 44.403076%, 100%)" offset="0.0078125"/><stop stop-opacity="1" stop-color="rgb(32.080078%, 44.612122%, 100%)" offset="0.015625"/><stop stop-opacity="1" stop-color="rgb(32.002258%, 44.821167%, 100%)" offset="0.0234375"/><stop stop-opacity="1" stop-color="rgb(31.922913%, 45.030212%, 100%)" offset="0.03125"/><stop stop-opacity="1" stop-color="rgb(31.845093%, 45.240784%, 100%)" offset="0.0390625"/><stop stop-opacity="1" stop-color="rgb(31.765747%, 45.449829%, 100%)" offset="0.046875"/><stop stop-opacity="1" stop-color="rgb(31.686401%, 45.658875%, 100%)" offset="0.0546875"/><stop stop-opacity="1" stop-color="rgb(31.608582%, 45.86792%, 100%)" offset="0.0625"/><stop stop-opacity="1" stop-color="rgb(31.529236%, 46.076965%, 100%)" offset="0.0703125"/><stop stop-opacity="1" stop-color="rgb(31.451416%, 46.286011%, 100%)" offset="0.078125"/><stop stop-opacity="1" stop-color="rgb(31.37207%, 46.495056%, 100%)" offset="0.0859375"/><stop stop-opacity="1" stop-color="rgb(31.292725%, 46.704102%, 100%)" offset="0.09375"/><stop stop-opacity="1" stop-color="rgb(31.214905%, 46.913147%, 100%)" offset="0.101562"/><stop stop-opacity="1" stop-color="rgb(31.135559%, 47.123718%, 100%)" offset="0.109375"/><stop stop-opacity="1" stop-color="rgb(31.057739%, 47.332764%, 100%)" offset="0.117187"/><stop stop-opacity="1" stop-color="rgb(30.978394%, 47.541809%, 100%)" offset="0.125"/><stop stop-opacity="1" stop-color="rgb(30.899048%, 47.750854%, 100%)" offset="0.132812"/><stop stop-opacity="1" stop-color="rgb(30.821228%, 47.9599%, 100%)" offset="0.140625"/><stop stop-opacity="1" stop-color="rgb(30.741882%, 48.168945%, 100%)" offset="0.148438"/><stop stop-opacity="1" stop-color="rgb(30.664062%, 48.377991%, 100%)" offset="0.15625"/><stop stop-opacity="1" stop-color="rgb(30.584717%, 48.587036%, 100%)" offset="0.164062"/><stop stop-opacity="1" stop-color="rgb(30.505371%, 48.796082%, 100%)" offset="0.171875"/><stop stop-opacity="1" stop-color="rgb(30.427551%, 49.006653%, 100%)" offset="0.179688"/><stop stop-opacity="1" stop-color="rgb(30.348206%, 49.215698%, 100%)" offset="0.1875"/><stop stop-opacity="1" stop-color="rgb(30.270386%, 49.424744%, 100%)" offset="0.195313"/><stop stop-opacity="1" stop-color="rgb(30.19104%, 49.633789%, 100%)" offset="0.203125"/><stop stop-opacity="1" stop-color="rgb(30.111694%, 49.842834%, 100%)" offset="0.210938"/><stop stop-opacity="1" stop-color="rgb(30.033875%, 50.05188%, 100%)" offset="0.21875"/><stop stop-opacity="1" stop-color="rgb(29.954529%, 50.260925%, 100%)" offset="0.226562"/><stop stop-opacity="1" stop-color="rgb(29.875183%, 50.469971%, 100%)" offset="0.234375"/><stop stop-opacity="1" stop-color="rgb(29.797363%, 50.680542%, 100%)" offset="0.242188"/><stop stop-opacity="1" stop-color="rgb(29.718018%, 50.889587%, 100%)" offset="0.25"/><stop stop-opacity="1" stop-color="rgb(29.640198%, 51.098633%, 100%)" offset="0.257812"/><stop stop-opacity="1" stop-color="rgb(29.560852%, 51.307678%, 100%)" offset="0.265625"/><stop stop-opacity="1" stop-color="rgb(29.481506%, 51.516724%, 100%)" offset="0.273437"/><stop stop-opacity="1" stop-color="rgb(29.403687%, 51.725769%, 100%)" offset="0.28125"/><stop stop-opacity="1" stop-color="rgb(29.324341%, 51.934814%, 100%)" offset="0.289062"/><stop stop-opacity="1" stop-color="rgb(29.246521%, 52.14386%, 100%)" offset="0.296875"/><stop stop-opacity="1" stop-color="rgb(29.167175%, 52.352905%, 100%)" offset="0.304687"/><stop stop-opacity="1" stop-color="rgb(29.08783%, 52.563477%, 100%)" offset="0.3125"/><stop stop-opacity="1" stop-color="rgb(29.01001%, 52.772522%, 100%)" offset="0.320312"/><stop stop-opacity="1" stop-color="rgb(28.930664%, 52.981567%, 100%)" offset="0.328125"/><stop stop-opacity="1" stop-color="rgb(28.852844%, 53.190613%, 100%)" offset="0.335937"/><stop stop-opacity="1" stop-color="rgb(28.773499%, 53.399658%, 100%)" offset="0.34375"/><stop stop-opacity="1" stop-color="rgb(28.694153%, 53.608704%, 100%)" offset="0.351562"/><stop stop-opacity="1" stop-color="rgb(28.616333%, 53.817749%, 100%)" offset="0.359375"/><stop stop-opacity="1" stop-color="rgb(28.536987%, 54.026794%, 100%)" offset="0.367187"/><stop stop-opacity="1" stop-color="rgb(28.459167%, 54.23584%, 100%)" offset="0.375"/><stop stop-opacity="1" stop-color="rgb(28.379822%, 54.446411%, 100%)" offset="0.382812"/><stop stop-opacity="1" stop-color="rgb(28.300476%, 54.655457%, 100%)" offset="0.390625"/><stop stop-opacity="1" stop-color="rgb(28.222656%, 54.864502%, 100%)" offset="0.398437"/><stop stop-opacity="1" stop-color="rgb(28.143311%, 55.073547%, 100%)" offset="0.40625"/><stop stop-opacity="1" stop-color="rgb(28.063965%, 55.282593%, 100%)" offset="0.414062"/><stop stop-opacity="1" stop-color="rgb(27.986145%, 55.491638%, 100%)" offset="0.421875"/><stop stop-opacity="1" stop-color="rgb(27.906799%, 55.700684%, 100%)" offset="0.429687"/><stop stop-opacity="1" stop-color="rgb(27.828979%, 55.909729%, 100%)" offset="0.4375"/><stop stop-opacity="1" stop-color="rgb(27.749634%, 56.118774%, 100%)" offset="0.445312"/><stop stop-opacity="1" stop-color="rgb(27.670288%, 56.329346%, 100%)" offset="0.453125"/><stop stop-opacity="1" stop-color="rgb(27.592468%, 56.538391%, 100%)" offset="0.460937"/><stop stop-opacity="1" stop-color="rgb(27.513123%, 56.747437%, 100%)" offset="0.46875"/><stop stop-opacity="1" stop-color="rgb(27.435303%, 56.956482%, 100%)" offset="0.476562"/><stop stop-opacity="1" stop-color="rgb(27.355957%, 57.165527%, 100%)" offset="0.484375"/><stop stop-opacity="1" stop-color="rgb(27.276611%, 57.374573%, 100%)" offset="0.492187"/><stop stop-opacity="1" stop-color="rgb(27.198792%, 57.583618%, 100%)" offset="0.497537"/><stop stop-opacity="1" stop-color="rgb(27.159119%, 57.688904%, 100%)" offset="0.5"/><stop stop-opacity="1" stop-color="rgb(27.119446%, 57.792664%, 100%)" offset="0.502463"/><stop stop-opacity="1" stop-color="rgb(27.081299%, 57.897949%, 100%)" offset="0.507812"/><stop stop-opacity="1" stop-color="rgb(27.041626%, 58.003235%, 100%)" offset="0.515625"/><stop stop-opacity="1" stop-color="rgb(26.96228%, 58.21228%, 100%)" offset="0.523438"/><stop stop-opacity="1" stop-color="rgb(26.882935%, 58.421326%, 100%)" offset="0.53125"/><stop stop-opacity="1" stop-color="rgb(26.805115%, 58.630371%, 100%)" offset="0.539063"/><stop stop-opacity="1" stop-color="rgb(26.725769%, 58.839417%, 100%)" offset="0.546875"/><stop stop-opacity="1" stop-color="rgb(26.647949%, 59.048462%, 100%)" offset="0.554688"/><stop stop-opacity="1" stop-color="rgb(26.568604%, 59.257507%, 100%)" offset="0.5625"/><stop stop-opacity="1" stop-color="rgb(26.489258%, 59.466553%, 100%)" offset="0.570313"/><stop stop-opacity="1" stop-color="rgb(26.411438%, 59.675598%, 100%)" offset="0.578125"/><stop stop-opacity="1" stop-color="rgb(26.332092%, 59.886169%, 100%)" offset="0.585938"/><stop stop-opacity="1" stop-color="rgb(26.254272%, 60.095215%, 100%)" offset="0.59375"/><stop stop-opacity="1" stop-color="rgb(26.174927%, 60.30426%, 100%)" offset="0.601563"/><stop stop-opacity="1" stop-color="rgb(26.095581%, 60.513306%, 100%)" offset="0.609375"/><stop stop-opacity="1" stop-color="rgb(26.017761%, 60.722351%, 100%)" offset="0.617188"/><stop stop-opacity="1" stop-color="rgb(25.938416%, 60.931396%, 100%)" offset="0.625"/><stop stop-opacity="1" stop-color="rgb(25.85907%, 61.140442%, 100%)" offset="0.632813"/><stop stop-opacity="1" stop-color="rgb(25.78125%, 61.349487%, 100%)" offset="0.640625"/><stop stop-opacity="1" stop-color="rgb(25.701904%, 61.558533%, 100%)" offset="0.648438"/><stop stop-opacity="1" stop-color="rgb(25.624084%, 61.769104%, 100%)" offset="0.65625"/><stop stop-opacity="1" stop-color="rgb(25.544739%, 61.978149%, 100%)" offset="0.664063"/><stop stop-opacity="1" stop-color="rgb(25.465393%, 62.187195%, 100%)" offset="0.671875"/><stop stop-opacity="1" stop-color="rgb(25.387573%, 62.39624%, 100%)" offset="0.679687"/><stop stop-opacity="1" stop-color="rgb(25.308228%, 62.605286%, 100%)" offset="0.6875"/><stop stop-opacity="1" stop-color="rgb(25.230408%, 62.814331%, 100%)" offset="0.695312"/><stop stop-opacity="1" stop-color="rgb(25.151062%, 63.023376%, 100%)" offset="0.703125"/><stop stop-opacity="1" stop-color="rgb(25.071716%, 63.232422%, 100%)" offset="0.710937"/><stop stop-opacity="1" stop-color="rgb(24.993896%, 63.442993%, 100%)" offset="0.71875"/><stop stop-opacity="1" stop-color="rgb(24.914551%, 63.652039%, 100%)" offset="0.726562"/><stop stop-opacity="1" stop-color="rgb(24.836731%, 63.861084%, 100%)" offset="0.734375"/><stop stop-opacity="1" stop-color="rgb(24.757385%, 64.070129%, 100%)" offset="0.742187"/><stop stop-opacity="1" stop-color="rgb(24.67804%, 64.279175%, 100%)" offset="0.75"/><stop stop-opacity="1" stop-color="rgb(24.60022%, 64.48822%, 100%)" offset="0.757812"/><stop stop-opacity="1" stop-color="rgb(24.520874%, 64.697266%, 100%)" offset="0.765625"/><stop stop-opacity="1" stop-color="rgb(24.443054%, 64.906311%, 100%)" offset="0.773438"/><stop stop-opacity="1" stop-color="rgb(24.363708%, 65.115356%, 100%)" offset="0.78125"/><stop stop-opacity="1" stop-color="rgb(24.284363%, 65.325928%, 100%)" offset="0.789062"/><stop stop-opacity="1" stop-color="rgb(24.206543%, 65.534973%, 100%)" offset="0.796875"/><stop stop-opacity="1" stop-color="rgb(24.127197%, 65.744019%, 100%)" offset="0.804688"/><stop stop-opacity="1" stop-color="rgb(24.047852%, 65.953064%, 100%)" offset="0.8125"/><stop stop-opacity="1" stop-color="rgb(23.970032%, 66.162109%, 100%)" offset="0.820312"/><stop stop-opacity="1" stop-color="rgb(23.890686%, 66.371155%, 100%)" offset="0.828125"/><stop stop-opacity="1" stop-color="rgb(23.812866%, 66.5802%, 100%)" offset="0.835938"/><stop stop-opacity="1" stop-color="rgb(23.733521%, 66.789246%, 100%)" offset="0.84375"/><stop stop-opacity="1" stop-color="rgb(23.654175%, 66.998291%, 100%)" offset="0.851562"/><stop stop-opacity="1" stop-color="rgb(23.576355%, 67.208862%, 100%)" offset="0.859375"/><stop stop-opacity="1" stop-color="rgb(23.497009%, 67.417908%, 100%)" offset="0.867188"/><stop stop-opacity="1" stop-color="rgb(23.419189%, 67.626953%, 100%)" offset="0.875"/><stop stop-opacity="1" stop-color="rgb(23.339844%, 67.835999%, 100%)" offset="0.882812"/><stop stop-opacity="1" stop-color="rgb(23.260498%, 68.045044%, 100%)" offset="0.890625"/><stop stop-opacity="1" stop-color="rgb(23.182678%, 68.254089%, 100%)" offset="0.898438"/><stop stop-opacity="1" stop-color="rgb(23.103333%, 68.463135%, 100%)" offset="0.90625"/><stop stop-opacity="1" stop-color="rgb(23.025513%, 68.67218%, 100%)" offset="0.914062"/><stop stop-opacity="1" stop-color="rgb(22.946167%, 68.882751%, 100%)" offset="0.921875"/><stop stop-opacity="1" stop-color="rgb(22.866821%, 69.091797%, 100%)" offset="0.929688"/><stop stop-opacity="1" stop-color="rgb(22.789001%, 69.300842%, 100%)" offset="0.9375"/><stop stop-opacity="1" stop-color="rgb(22.709656%, 69.509888%, 100%)" offset="0.945312"/><stop stop-opacity="1" stop-color="rgb(22.631836%, 69.718933%, 100%)" offset="0.953125"/><stop stop-opacity="1" stop-color="rgb(22.55249%, 69.927979%, 100%)" offset="0.960938"/><stop stop-opacity="1" stop-color="rgb(22.473145%, 70.137024%, 100%)" offset="0.96875"/><stop stop-opacity="1" stop-color="rgb(22.395325%, 70.346069%, 100%)" offset="0.976562"/><stop stop-opacity="1" stop-color="rgb(22.315979%, 70.555115%, 100%)" offset="0.984375"/><stop stop-opacity="1" stop-color="rgb(22.238159%, 70.765686%, 100%)" offset="0.992188"/><stop stop-opacity="1" stop-color="rgb(22.158813%, 70.974731%, 100%)" offset="1"/></linearGradient><clipPath id="1e764dcf91"><path d="M 245.816406 230.097656 L 562.511719 230.097656 L 562.511719 546.789062 L 245.816406 546.789062 Z M 245.816406 230.097656 " clip-rule="nonzero"/></clipPath><clipPath id="ee52a28060"><path d="M 266.816406 305.976562 L 405 305.976562 L 405 442.476562 L 266.816406 442.476562 Z M 266.816406 305.976562 " clip-rule="nonzero"/></clipPath><clipPath id="21a60092e3"><path d="M 404 305.976562 L 542.816406 305.976562 L 542.816406 442.476562 L 404 442.476562 Z M 404 305.976562 " clip-rule="nonzero"/></clipPath></defs><g clip-path="url(#0502060b83)"><g clip-path="url(#a5af2f02ba)"><path fill="url(#bd90df60cb)" d="M 238.273438 222.550781 L 238.273438 554.515625 L 570.238281 554.515625 L 570.238281 222.550781 Z M 238.273438 222.550781 " fill-rule="nonzero"/></g></g><g clip-path="url(#1e764dcf91)"><path fill="#ffffff" d="M 404.164062 546.789062 C 316.878906 546.789062 245.816406 475.730469 245.816406 388.445312 C 245.816406 301.15625 316.878906 230.097656 404.164062 230.097656 C 491.449219 230.097656 562.511719 301.15625 562.511719 388.445312 C 562.511719 475.730469 491.449219 546.789062 404.164062 546.789062 Z M 404.164062 232.4375 C 318.125 232.4375 248.15625 302.40625 248.15625 388.445312 C 248.15625 474.480469 318.125 544.449219 404.164062 544.449219 C 490.203125 544.449219 560.171875 474.480469 560.171875 388.445312 C 560.171875 302.40625 490.203125 232.4375 404.164062 232.4375 Z M 404.164062 232.4375 " fill-opacity="1" fill-rule="nonzero"/></g><g clip-path="url(#ee52a28060)"><path fill="#ffffff" d="M 367.808594 328.371094 L 356.96875 317.539062 L 330.402344 317.539062 L 327.851562 320.089844 C 326.785156 319.273438 325.257812 319.351562 324.28125 320.324219 C 323.222656 321.382812 323.222656 323.105469 324.28125 324.164062 C 325.34375 325.226562 327.0625 325.226562 328.125 324.164062 C 329.101562 323.191406 329.175781 321.664062 328.363281 320.597656 L 330.703125 318.261719 L 356.667969 318.261719 L 367.507812 329.09375 L 371.324219 329.09375 L 404.835938 362.792969 L 404.835938 361.824219 L 371.582031 328.371094 Z M 368.125 334.699219 L 355.355469 321.941406 L 335.148438 321.941406 L 327.796875 329.285156 L 310.117188 329.285156 C 309.847656 326.996094 307.898438 325.214844 305.535156 325.214844 C 302.984375 325.214844 300.914062 327.285156 300.914062 329.828125 C 300.914062 332.371094 302.984375 334.445312 305.535156 334.445312 C 307.898438 334.445312 309.847656 332.660156 310.117188 330.371094 L 328.246094 330.371094 L 335.59375 323.027344 L 354.90625 323.027344 L 367.675781 335.785156 L 370.582031 335.785156 L 404.835938 369.980469 L 404.835938 368.035156 L 371.582031 334.699219 Z M 363.304688 348.539062 L 353.183594 338.425781 L 312.015625 338.425781 L 305.0625 345.375 L 274.945312 345.375 C 274.679688 343.382812 272.976562 341.84375 270.910156 341.84375 C 268.660156 341.84375 266.832031 343.667969 266.832031 345.917969 C 266.832031 348.167969 268.660156 349.988281 270.910156 349.988281 C 272.976562 349.988281 274.679688 348.449219 274.945312 346.457031 L 305.511719 346.457031 L 312.464844 339.511719 L 352.734375 339.511719 L 362.855469 349.621094 L 371.320312 349.621094 L 404.835938 382.75 L 404.835938 380.859375 L 371.582031 348.539062 Z M 357.75 414.980469 L 344.394531 414.980469 C 344.21875 413.652344 343.082031 412.628906 341.703125 412.628906 C 340.203125 412.628906 338.984375 413.84375 338.984375 415.34375 C 338.984375 416.84375 340.203125 418.058594 341.703125 418.058594 C 343.082031 418.058594 344.21875 417.03125 344.394531 415.703125 L 358.050781 415.703125 L 368.03125 405.730469 L 404.835938 442.472656 L 404.835938 441.507812 L 367.992188 404.75 Z M 367.675781 389.285156 L 354.90625 402.042969 L 335.59375 402.042969 L 328.246094 394.699219 L 310.117188 394.699219 C 309.847656 392.40625 307.898438 390.625 305.535156 390.625 C 302.984375 390.625 300.914062 392.695312 300.914062 395.238281 C 300.914062 397.785156 302.984375 399.855469 305.535156 399.855469 C 307.898438 399.855469 309.847656 398.070312 310.117188 395.78125 L 327.796875 395.78125 L 335.148438 403.125 L 355.355469 403.125 L 368.125 390.367188 L 370.894531 390.367188 L 404.835938 423.5 L 404.835938 421.59375 L 371.582031 389.285156 Z M 362.855469 375.445312 L 352.734375 385.558594 L 312.464844 385.558594 L 305.511719 378.609375 L 274.945312 378.609375 C 274.679688 376.617188 272.976562 375.078125 270.910156 375.078125 C 268.660156 375.078125 266.832031 376.902344 266.832031 379.152344 C 266.832031 381.402344 268.660156 383.222656 270.910156 383.222656 C 272.976562 383.222656 274.679688 381.6875 274.945312 379.695312 L 305.0625 379.695312 L 312.015625 386.640625 L 353.183594 386.640625 L 363.304688 376.53125 L 370.800781 376.53125 L 404.835938 411.265625 L 404.835938 409.3125 L 371.582031 375.445312 Z M 367.507812 395.976562 L 356.667969 406.804688 L 330.703125 406.804688 L 328.363281 404.46875 C 329.175781 403.40625 329.101562 401.878906 328.125 400.902344 C 327.0625 399.84375 325.34375 399.84375 324.28125 400.902344 C 323.222656 401.960938 323.222656 403.683594 324.28125 404.746094 C 325.257812 405.714844 326.785156 405.792969 327.851562 404.980469 L 330.402344 407.527344 L 356.96875 407.527344 L 367.808594 396.699219 L 371.085938 396.699219 L 404.835938 430.410156 L 404.835938 429.429688 L 371.582031 395.976562 Z M 362.988281 341.980469 L 353.898438 332.898438 C 354.714844 331.832031 354.636719 330.304688 353.664062 329.332031 C 352.601562 328.273438 350.882812 328.273438 349.820312 329.332031 C 348.757812 330.394531 348.757812 332.113281 349.820312 333.171875 C 350.796875 334.148438 352.324219 334.222656 353.390625 333.410156 L 362.691406 342.699219 L 371.09375 342.699219 L 404.835938 376.414062 L 404.835938 375.429688 L 371.582031 341.980469 Z M 362.691406 382.367188 L 353.390625 391.660156 C 352.324219 390.84375 350.796875 390.921875 349.820312 391.894531 C 348.757812 392.953125 348.757812 394.675781 349.820312 395.734375 C 350.882812 396.796875 352.601562 396.796875 353.664062 395.734375 C 354.636719 394.761719 354.714844 393.234375 353.898438 392.167969 L 362.988281 383.085938 L 371.257812 383.085938 L 404.835938 416.792969 L 404.835938 415.816406 L 371.582031 382.367188 Z M 359.558594 369.238281 L 348.921875 379.863281 L 334.273438 379.863281 C 334.097656 378.535156 332.960938 377.511719 331.582031 377.511719 C 330.082031 377.511719 328.863281 378.726562 328.863281 380.226562 C 328.863281 381.726562 330.082031 382.941406 331.582031 382.941406 C 332.960938 382.941406 334.097656 381.917969 334.273438 380.589844 L 349.21875 380.589844 L 359.859375 369.960938 L 371.074219 369.960938 L 404.835938 403.671875 L 404.835938 402.691406 L 371.582031 369.238281 Z M 368.289062 318.570312 L 358.050781 308.335938 L 344.394531 308.335938 C 344.21875 307.007812 343.082031 305.980469 341.703125 305.980469 C 340.203125 305.980469 338.984375 307.199219 338.984375 308.699219 C 338.984375 310.199219 340.203125 311.414062 341.703125 311.414062 C 343.082031 311.414062 344.21875 310.386719 344.394531 309.058594 L 357.75 309.058594 L 367.992188 319.289062 L 404.835938 355.582031 L 404.835938 354.617188 Z M 359.859375 355.109375 L 349.21875 344.480469 L 334.273438 344.480469 C 334.097656 343.152344 332.960938 342.125 331.582031 342.125 C 330.082031 342.125 328.863281 343.339844 328.863281 344.839844 C 328.863281 346.339844 330.082031 347.554688 331.582031 347.554688 C 332.960938 347.554688 334.097656 346.53125 334.273438 345.203125 L 348.921875 345.203125 L 359.558594 355.828125 L 371.101562 355.828125 L 404.835938 389.539062 L 404.835938 388.558594 L 371.582031 355.109375 Z M 352.011719 362.199219 L 344.246094 369.960938 L 290.011719 369.960938 C 289.742188 367.671875 287.792969 365.890625 285.425781 365.890625 C 282.882812 365.890625 280.808594 367.960938 280.808594 370.503906 C 280.808594 373.050781 282.882812 375.121094 285.425781 375.121094 C 287.792969 375.121094 289.742188 373.335938 290.011719 371.046875 L 344.691406 371.046875 L 352.460938 363.28125 L 371.226562 363.28125 L 404.835938 396.414062 L 404.835938 394.519531 L 371.582031 362.199219 L 352.011719 362.199219 " fill-opacity="1" fill-rule="nonzero"/></g><g clip-path="url(#21a60092e3)"><path fill="#ffffff" d="M 438.09375 328.371094 L 404.835938 361.824219 L 404.835938 362.792969 L 438.351562 329.09375 L 442.167969 329.09375 L 453.007812 318.261719 L 478.972656 318.261719 L 481.3125 320.597656 C 480.496094 321.664062 480.574219 323.191406 481.550781 324.164062 C 482.613281 325.226562 484.332031 325.226562 485.394531 324.164062 C 486.453125 323.105469 486.453125 321.382812 485.394531 320.324219 C 484.417969 319.351562 482.890625 319.273438 481.824219 320.089844 L 479.273438 317.539062 L 452.707031 317.539062 L 441.867188 328.371094 Z M 438.09375 334.699219 L 404.835938 368.035156 L 404.835938 369.980469 L 439.089844 335.785156 L 442 335.785156 L 454.769531 323.027344 L 474.078125 323.027344 L 481.429688 330.371094 L 499.558594 330.371094 C 499.828125 332.660156 501.777344 334.445312 504.140625 334.445312 C 506.6875 334.445312 508.761719 332.371094 508.761719 329.828125 C 508.761719 327.285156 506.6875 325.214844 504.140625 325.214844 C 501.777344 325.214844 499.828125 326.996094 499.558594 329.285156 L 481.878906 329.285156 L 474.527344 321.941406 L 454.320312 321.941406 L 441.550781 334.699219 Z M 438.09375 348.539062 L 404.835938 380.859375 L 404.835938 382.75 L 438.355469 349.621094 L 446.820312 349.621094 L 456.941406 339.511719 L 497.210938 339.511719 L 504.164062 346.457031 L 534.726562 346.457031 C 534.992188 348.449219 536.699219 349.988281 538.765625 349.988281 C 541.015625 349.988281 542.839844 348.167969 542.839844 345.917969 C 542.839844 343.667969 541.015625 341.84375 538.765625 341.84375 C 536.699219 341.84375 534.992188 343.382812 534.726562 345.375 L 504.613281 345.375 L 497.660156 338.425781 L 456.492188 338.425781 L 446.371094 348.539062 Z M 441.683594 404.75 L 404.835938 441.507812 L 404.835938 442.472656 L 441.644531 405.730469 L 451.625 415.703125 L 465.28125 415.703125 C 465.457031 417.03125 466.59375 418.058594 467.972656 418.058594 C 469.472656 418.058594 470.691406 416.84375 470.691406 415.34375 C 470.691406 413.84375 469.472656 412.628906 467.972656 412.628906 C 466.59375 412.628906 465.457031 413.652344 465.28125 414.980469 L 451.925781 414.980469 Z M 438.09375 389.285156 L 404.835938 421.59375 L 404.835938 423.5 L 438.78125 390.367188 L 441.550781 390.367188 L 454.320312 403.125 L 474.527344 403.125 L 481.878906 395.78125 L 499.558594 395.78125 C 499.828125 398.070312 501.777344 399.855469 504.140625 399.855469 C 506.6875 399.855469 508.761719 397.785156 508.761719 395.238281 C 508.761719 392.695312 506.6875 390.625 504.140625 390.625 C 501.777344 390.625 499.828125 392.40625 499.558594 394.699219 L 481.429688 394.699219 L 474.078125 402.042969 L 454.769531 402.042969 L 442 389.285156 Z M 438.09375 375.445312 L 404.835938 409.3125 L 404.835938 411.265625 L 438.875 376.53125 L 446.371094 376.53125 L 456.492188 386.640625 L 497.660156 386.640625 L 504.613281 379.695312 L 534.726562 379.695312 C 534.992188 381.6875 536.699219 383.222656 538.765625 383.222656 C 541.015625 383.222656 542.839844 381.402344 542.839844 379.152344 C 542.839844 376.902344 541.015625 375.078125 538.765625 375.078125 C 536.699219 375.078125 534.992188 376.617188 534.726562 378.609375 L 504.164062 378.609375 L 497.210938 385.558594 L 456.941406 385.558594 L 446.820312 375.445312 Z M 438.09375 395.976562 L 404.835938 429.429688 L 404.835938 430.410156 L 438.589844 396.699219 L 441.867188 396.699219 L 452.707031 407.527344 L 479.273438 407.527344 L 481.824219 404.980469 C 482.890625 405.792969 484.417969 405.714844 485.394531 404.746094 C 486.453125 403.683594 486.453125 401.960938 485.394531 400.902344 C 484.332031 399.84375 482.613281 399.84375 481.550781 400.902344 C 480.574219 401.878906 480.496094 403.40625 481.3125 404.46875 L 478.972656 406.804688 L 453.007812 406.804688 L 442.167969 395.976562 Z M 438.09375 341.980469 L 404.835938 375.429688 L 404.835938 376.414062 L 438.582031 342.699219 L 446.984375 342.699219 L 456.285156 333.410156 C 457.351562 334.222656 458.878906 334.148438 459.855469 333.171875 C 460.917969 332.113281 460.917969 330.394531 459.855469 329.332031 C 458.792969 328.273438 457.070312 328.273438 456.011719 329.332031 C 455.039062 330.304688 454.957031 331.832031 455.773438 332.898438 L 446.6875 341.980469 Z M 438.09375 382.367188 L 404.835938 415.816406 L 404.835938 416.792969 L 438.417969 383.085938 L 446.6875 383.085938 L 455.773438 392.167969 C 454.957031 393.234375 455.039062 394.761719 456.011719 395.734375 C 457.070312 396.796875 458.792969 396.796875 459.855469 395.734375 C 460.917969 394.675781 460.917969 392.953125 459.855469 391.894531 C 458.878906 390.921875 457.351562 390.84375 456.285156 391.660156 L 446.984375 382.367188 Z M 438.09375 369.238281 L 404.835938 402.691406 L 404.835938 403.671875 L 438.597656 369.960938 L 449.816406 369.960938 L 460.457031 380.589844 L 475.402344 380.589844 C 475.578125 381.917969 476.714844 382.941406 478.09375 382.941406 C 479.59375 382.941406 480.808594 381.726562 480.808594 380.226562 C 480.808594 378.726562 479.59375 377.511719 478.09375 377.511719 C 476.714844 377.511719 475.578125 378.535156 475.402344 379.863281 L 460.753906 379.863281 L 450.117188 369.238281 Z M 404.835938 354.617188 L 404.835938 355.582031 L 441.683594 319.289062 L 451.925781 309.058594 L 465.28125 309.058594 C 465.457031 310.386719 466.59375 311.414062 467.972656 311.414062 C 469.472656 311.414062 470.691406 310.199219 470.691406 308.699219 C 470.691406 307.199219 469.472656 305.980469 467.972656 305.980469 C 466.59375 305.980469 465.457031 307.007812 465.28125 308.335938 L 451.625 308.335938 L 441.386719 318.570312 Z M 438.09375 355.109375 L 404.835938 388.558594 L 404.835938 389.539062 L 438.574219 355.828125 L 450.117188 355.828125 L 460.753906 345.203125 L 475.402344 345.203125 C 475.578125 346.53125 476.714844 347.554688 478.09375 347.554688 C 479.59375 347.554688 480.808594 346.339844 480.808594 344.839844 C 480.808594 343.339844 479.59375 342.125 478.09375 342.125 C 476.714844 342.125 475.578125 343.152344 475.402344 344.480469 L 460.457031 344.480469 L 449.816406 355.109375 Z M 438.09375 362.199219 L 404.835938 394.519531 L 404.835938 396.414062 L 438.449219 363.28125 L 457.214844 363.28125 L 464.980469 371.046875 L 519.664062 371.046875 C 519.933594 373.335938 521.882812 375.121094 524.246094 375.121094 C 526.792969 375.121094 528.867188 373.050781 528.867188 370.503906 C 528.867188 367.960938 526.792969 365.890625 524.246094 365.890625 C 521.882812 365.890625 519.933594 367.671875 519.664062 369.960938 L 465.429688 369.960938 L 457.660156 362.199219 L 438.09375 362.199219 " fill-opacity="1" fill-rule="nonzero"/></g><g fill="#ffffff" fill-opacity="1"><g transform="translate(341.890354, 484.970889)"><g/></g></g><g fill="#ffffff" fill-opacity="1"><g transform="translate(350.885491, 484.970889)"><g/></g></g><g fill="#ffffff" fill-opacity="1"><g transform="translate(359.872798, 484.970889)"><g><path d="M 18.046875 -21.808594 L 14.527344 -21.808594 C 14.339844 -21.808594 14.203125 -21.671875 14.203125 -21.5625 L 14.203125 -7.359375 L 4.144531 -21.726562 C 4.117188 -21.78125 3.953125 -21.808594 3.898438 -21.808594 L 0.273438 -21.808594 C 0.136719 -21.808594 0 -21.671875 0 -21.5625 L 0 -5.234375 L 4.171875 -5.234375 L 4.171875 -14.445312 L 14.203125 -0.0820312 C 14.230469 -0.0273438 14.394531 0 14.445312 0 L 18.046875 0 C 18.234375 0 18.34375 -0.136719 18.34375 -0.246094 L 18.34375 -21.5625 C 18.34375 -21.671875 18.234375 -21.808594 18.046875 -21.808594 Z M 18.046875 -21.808594 "/></g></g></g><g fill="#ffffff" fill-opacity="1"><g transform="translate(381.324188, 484.970889)"><g><path d="M 11.367188 -17.746094 L 8.503906 -9.757812 L 4.253906 -21.644531 C 4.226562 -21.753906 4.117188 -21.808594 3.980469 -21.808594 L 0.273438 -21.808594 C 0.0546875 -21.808594 -0.0546875 -21.644531 0.0273438 -21.480469 L 8.230469 -0.136719 C 8.339844 0.0546875 8.667969 0.0546875 8.75 -0.136719 L 15.566406 -17.746094 Z M 11.367188 -17.746094 "/></g></g></g><g fill="#ffffff" fill-opacity="1"><g transform="translate(399.859128, 484.970889)"><g><path d="M 8.886719 -3.734375 L 6.707031 -3.734375 L 6.707031 -21.808594 L 2.535156 -21.808594 L 2.535156 -3.734375 L 0.300781 -3.734375 C 0.136719 -3.734375 0 -3.625 0 -3.488281 L 0 -0.246094 C 0 -0.136719 0.136719 0 0.300781 0 L 8.886719 0 C 9.078125 0 9.1875 -0.136719 9.1875 -0.246094 L 9.1875 -3.488281 C 9.1875 -3.625 9.078125 -3.734375 8.886719 -3.734375 Z M 8.886719 -3.734375 "/></g></g></g><g fill="#ffffff" fill-opacity="1"><g transform="translate(411.688948, 484.970889)"><g><path d="M 12.457031 -4.007812 C 9.8125 -3.898438 4.199219 -4.171875 4.199219 -10.902344 C 4.199219 -16.082031 7.714844 -18.074219 12.457031 -17.828125 L 12.457031 -13.003906 L 16.628906 -13.003906 L 16.628906 -21.5625 C 16.628906 -21.671875 16.519531 -21.808594 16.328125 -21.808594 L 12.785156 -21.808594 C 7.441406 -21.808594 0 -20.582031 0 -10.902344 C 0 -1.582031 7.359375 0 12.785156 0 L 16.328125 0 C 16.519531 0 16.628906 -0.136719 16.628906 -0.246094 L 16.628906 -4.007812 Z M 12.457031 -4.007812 "/></g></g></g><g fill="#ffffff" fill-opacity="1"><g transform="translate(431.341406, 484.970889)"><g><path d="M 4.496094 -13.902344 L 4.496094 -0.246094 C 4.496094 -0.136719 4.605469 0 4.796875 0 L 8.3125 0 C 8.503906 0 8.640625 -0.136719 8.640625 -0.246094 L 8.640625 -13.902344 Z M 0.300781 -18.074219 L 12.8125 -18.074219 C 13.003906 -18.074219 13.113281 -18.179688 13.113281 -18.316406 L 13.113281 -21.5625 C 13.113281 -21.671875 13.003906 -21.808594 12.8125 -21.808594 L 0.300781 -21.808594 C 0.136719 -21.808594 0 -21.671875 0 -21.5625 L 0 -18.316406 C 0 -18.179688 0.136719 -18.074219 0.300781 -18.074219 Z M 0.300781 -18.074219 "/></g></g></g><g fill="#ffffff" fill-opacity="1"><g transform="translate(447.286963, 484.970889)"><g><path d="M 16.082031 -21.808594 L 12.539062 -21.808594 C 12.347656 -21.808594 12.238281 -21.671875 12.238281 -21.5625 L 12.238281 -7.277344 C 12.238281 -5.070312 10.222656 -4.007812 8.175781 -4.007812 C 6.160156 -4.007812 4.363281 -5.152344 4.117188 -7.304688 L 4.117188 -17.855469 L 0 -17.855469 L 0 -7.277344 C 0 -2.78125 3.679688 0 8.175781 0 C 12.8125 0 16.355469 -2.671875 16.355469 -7.277344 L 16.355469 -21.5625 C 16.355469 -21.671875 16.21875 -21.808594 16.082031 -21.808594 Z M 16.082031 -21.808594 "/></g></g></g><g fill="#ffffff" fill-opacity="1"><g transform="translate(466.639592, 484.970889)"><g><path d="M 10.003906 -12.101562 C 8.449219 -12.839844 6.921875 -12.839844 6.789062 -12.839844 C 5.398438 -12.839844 4.0625 -13.65625 4.0625 -15.238281 C 4.0625 -16.980469 5.289062 -17.882812 6.789062 -17.882812 C 8.203125 -17.882812 9.402344 -17.144531 9.457031 -15.59375 C 9.457031 -15.511719 9.59375 -15.375 9.757812 -15.375 L 13.164062 -15.375 C 13.355469 -15.375 13.492188 -15.511719 13.464844 -15.59375 C 13.410156 -19.300781 10.523438 -21.808594 6.789062 -21.808594 C 3.296875 -21.808594 0 -19.328125 0 -15.238281 C 0 -12.703125 1.28125 -10.765625 3.542969 -9.730469 C 5.125 -8.996094 6.597656 -8.996094 6.789062 -8.996094 C 8.015625 -8.941406 9.511719 -7.960938 9.511719 -6.351562 C 9.511719 -4.90625 8.230469 -3.925781 6.789062 -3.925781 C 6.789062 -3.925781 6.789062 -3.925781 6.761719 -3.925781 L 6.761719 0 C 6.789062 0 6.789062 0 6.789062 0 C 10.277344 0 13.546875 -2.261719 13.546875 -6.351562 C 13.546875 -8.914062 12.292969 -11.039062 10.003906 -12.101562 Z M 10.003906 -12.101562 "/></g></g></g><g fill="#ffffff" fill-opacity="1"><g transform="translate(363.444877, 499.692782)"><g><path d="M 3.96875 0 L 2.921875 0 L 2.921875 -7.984375 L 0.109375 -7.984375 L 0.109375 -8.90625 L 6.78125 -8.90625 L 6.78125 -7.984375 L 3.96875 -7.984375 Z M 3.96875 0 "/></g></g></g><g fill="#ffffff" fill-opacity="1"><g transform="translate(371.858482, 499.692782)"><g><path d="M 6.1875 0 L 1.21875 0 L 1.21875 -8.90625 L 6.1875 -8.90625 L 6.1875 -7.984375 L 2.265625 -7.984375 L 2.265625 -5.109375 L 5.953125 -5.109375 L 5.953125 -4.203125 L 2.265625 -4.203125 L 2.265625 -0.921875 L 6.1875 -0.921875 Z M 6.1875 0 "/></g></g></g><g fill="#ffffff" fill-opacity="1"><g transform="translate(380.308591, 499.692782)"><g><path d="M 5.03125 -8.109375 C 4.050781 -8.109375 3.28125 -7.78125 2.71875 -7.125 C 2.15625 -6.476562 1.875 -5.585938 1.875 -4.453125 C 1.875 -3.285156 2.144531 -2.382812 2.6875 -1.75 C 3.226562 -1.113281 4.003906 -0.796875 5.015625 -0.796875 C 5.640625 -0.796875 6.347656 -0.90625 7.140625 -1.125 L 7.140625 -0.21875 C 6.523438 0.0078125 5.765625 0.125 4.859375 0.125 C 3.546875 0.125 2.535156 -0.269531 1.828125 -1.0625 C 1.117188 -1.863281 0.765625 -3 0.765625 -4.46875 C 0.765625 -5.382812 0.9375 -6.1875 1.28125 -6.875 C 1.625 -7.5625 2.117188 -8.09375 2.765625 -8.46875 C 3.410156 -8.84375 4.171875 -9.03125 5.046875 -9.03125 C 5.984375 -9.03125 6.800781 -8.859375 7.5 -8.515625 L 7.0625 -7.625 C 6.382812 -7.945312 5.707031 -8.109375 5.03125 -8.109375 Z M 5.03125 -8.109375 "/></g></g></g><g fill="#ffffff" fill-opacity="1"><g transform="translate(389.689539, 499.692782)"><g><path d="M 7.984375 0 L 6.953125 0 L 6.953125 -4.1875 L 2.265625 -4.1875 L 2.265625 0 L 1.21875 0 L 1.21875 -8.90625 L 2.265625 -8.90625 L 2.265625 -5.109375 L 6.953125 -5.109375 L 6.953125 -8.90625 L 7.984375 -8.90625 Z M 7.984375 0 "/></g></g></g><g fill="#ffffff" fill-opacity="1"><g transform="translate(400.402876, 499.692782)"><g><path d="M 8.171875 0 L 7 0 L 2.125 -7.46875 L 2.078125 -7.46875 C 2.140625 -6.59375 2.171875 -5.789062 2.171875 -5.0625 L 2.171875 0 L 1.21875 0 L 1.21875 -8.90625 L 2.390625 -8.90625 L 7.25 -1.46875 L 7.296875 -1.46875 C 7.285156 -1.570312 7.265625 -1.921875 7.234375 -2.515625 C 7.210938 -3.109375 7.203125 -3.535156 7.203125 -3.796875 L 7.203125 -8.90625 L 8.171875 -8.90625 Z M 8.171875 0 "/></g></g></g><g fill="#ffffff" fill-opacity="1"><g transform="translate(411.316979, 499.692782)"><g><path d="M 8.953125 -4.46875 C 8.953125 -3.039062 8.585938 -1.914062 7.859375 -1.09375 C 7.140625 -0.28125 6.140625 0.125 4.859375 0.125 C 3.546875 0.125 2.535156 -0.273438 1.828125 -1.078125 C 1.117188 -1.878906 0.765625 -3.007812 0.765625 -4.46875 C 0.765625 -5.914062 1.117188 -7.039062 1.828125 -7.84375 C 2.546875 -8.644531 3.5625 -9.046875 4.875 -9.046875 C 6.15625 -9.046875 7.15625 -8.640625 7.875 -7.828125 C 8.59375 -7.015625 8.953125 -5.894531 8.953125 -4.46875 Z M 1.859375 -4.46875 C 1.859375 -3.257812 2.113281 -2.34375 2.625 -1.71875 C 3.132812 -1.09375 3.878906 -0.78125 4.859375 -0.78125 C 5.847656 -0.78125 6.59375 -1.085938 7.09375 -1.703125 C 7.601562 -2.328125 7.859375 -3.25 7.859375 -4.46875 C 7.859375 -5.664062 7.601562 -6.570312 7.09375 -7.1875 C 6.59375 -7.800781 5.851562 -8.109375 4.875 -8.109375 C 3.882812 -8.109375 3.132812 -7.796875 2.625 -7.171875 C 2.113281 -6.554688 1.859375 -5.65625 1.859375 -4.46875 Z M 1.859375 -4.46875 "/></g></g></g><g fill="#ffffff" fill-opacity="1"><g transform="translate(422.541365, 499.692782)"><g><path d="M 1.21875 0 L 1.21875 -8.90625 L 2.265625 -8.90625 L 2.265625 -0.9375 L 6.1875 -0.9375 L 6.1875 0 Z M 1.21875 0 "/></g></g></g><g fill="#ffffff" fill-opacity="1"><g transform="translate(430.529093, 499.692782)"><g><path d="M 8.953125 -4.46875 C 8.953125 -3.039062 8.585938 -1.914062 7.859375 -1.09375 C 7.140625 -0.28125 6.140625 0.125 4.859375 0.125 C 3.546875 0.125 2.535156 -0.273438 1.828125 -1.078125 C 1.117188 -1.878906 0.765625 -3.007812 0.765625 -4.46875 C 0.765625 -5.914062 1.117188 -7.039062 1.828125 -7.84375 C 2.546875 -8.644531 3.5625 -9.046875 4.875 -9.046875 C 6.15625 -9.046875 7.15625 -8.640625 7.875 -7.828125 C 8.59375 -7.015625 8.953125 -5.894531 8.953125 -4.46875 Z M 1.859375 -4.46875 C 1.859375 -3.257812 2.113281 -2.34375 2.625 -1.71875 C 3.132812 -1.09375 3.878906 -0.78125 4.859375 -0.78125 C 5.847656 -0.78125 6.59375 -1.085938 7.09375 -1.703125 C 7.601562 -2.328125 7.859375 -3.25 7.859375 -4.46875 C 7.859375 -5.664062 7.601562 -6.570312 7.09375 -7.1875 C 6.59375 -7.800781 5.851562 -8.109375 4.875 -8.109375 C 3.882812 -8.109375 3.132812 -7.796875 2.625 -7.171875 C 2.113281 -6.554688 1.859375 -5.65625 1.859375 -4.46875 Z M 1.859375 -4.46875 "/></g></g></g><g fill="#ffffff" fill-opacity="1"><g transform="translate(441.753479, 499.692782)"><g><path d="M 5.140625 -4.65625 L 8.171875 -4.65625 L 8.171875 -0.328125 C 7.691406 -0.179688 7.207031 -0.0703125 6.71875 0 C 6.238281 0.0820312 5.675781 0.125 5.03125 0.125 C 3.6875 0.125 2.640625 -0.273438 1.890625 -1.078125 C 1.140625 -1.878906 0.765625 -3.003906 0.765625 -4.453125 C 0.765625 -5.378906 0.945312 -6.1875 1.3125 -6.875 C 1.6875 -7.570312 2.222656 -8.101562 2.921875 -8.46875 C 3.617188 -8.84375 4.4375 -9.03125 5.375 -9.03125 C 6.320312 -9.03125 7.207031 -8.851562 8.03125 -8.5 L 7.625 -7.59375 C 6.820312 -7.9375 6.050781 -8.109375 5.3125 -8.109375 C 4.226562 -8.109375 3.378906 -7.785156 2.765625 -7.140625 C 2.160156 -6.492188 1.859375 -5.597656 1.859375 -4.453125 C 1.859375 -3.242188 2.148438 -2.328125 2.734375 -1.703125 C 3.316406 -1.085938 4.179688 -0.78125 5.328125 -0.78125 C 5.941406 -0.78125 6.539062 -0.851562 7.125 -1 L 7.125 -3.734375 L 5.140625 -3.734375 Z M 5.140625 -4.65625 "/></g></g></g><g fill="#ffffff" fill-opacity="1"><g transform="translate(452.345139, 499.692782)"><g><path d="M 3.484375 -4.453125 L 5.859375 -8.90625 L 6.984375 -8.90625 L 4.015625 -3.453125 L 4.015625 0 L 2.96875 0 L 2.96875 -3.40625 L 0 -8.90625 L 1.125 -8.90625 Z M 3.484375 -4.453125 "/></g></g></g><g fill="#ffffff" fill-opacity="1"><g transform="translate(337.808261, 507.490472)"><g><path d="M 15.4375 -35.484375 C 15.425781 -37.242188 15.179688 -38.976562 14.703125 -40.6875 C 14.222656 -42.394531 13.640625 -43.738281 12.953125 -44.71875 C 12.273438 -45.707031 12.023438 -46.265625 12.203125 -46.390625 C 12.390625 -46.523438 12.882812 -46.015625 13.6875 -44.859375 C 14.5 -43.703125 15.148438 -42.253906 15.640625 -40.515625 C 16.140625 -38.773438 16.394531 -37.015625 16.40625 -35.234375 C 16.425781 -33.460938 16.226562 -31.703125 15.8125 -29.953125 C 15.40625 -28.203125 14.816406 -26.546875 14.046875 -24.984375 C 12.398438 -21.671875 10.296875 -19.128906 7.734375 -17.359375 L 7.1875 -16.96875 C 5.894531 -10.320312 3.796875 -5.128906 0.890625 -1.390625 C -0.0664062 -0.160156 -1.019531 0.78125 -1.96875 1.4375 C -2.914062 2.09375 -3.78125 2.554688 -4.5625 2.828125 C -5.351562 3.109375 -6.085938 3.253906 -6.765625 3.265625 C -8.128906 3.265625 -9.203125 2.796875 -9.984375 1.859375 C -10.753906 0.910156 -10.800781 -0.0546875 -10.125 -1.046875 C -9.457031 -2.035156 -8.742188 -2.378906 -7.984375 -2.078125 C -7.359375 -1.816406 -7.085938 -1.40625 -7.171875 -0.84375 C -7.265625 -0.28125 -7.441406 0.125 -7.703125 0.375 C -8.210938 0.8125 -8.660156 1.054688 -9.046875 1.109375 L -8.9375 1.25 C -8.332031 1.96875 -7.46875 2.332031 -6.34375 2.34375 C -5.21875 2.363281 -4.082031 1.976562 -2.9375 1.1875 C -1.800781 0.394531 -0.867188 -0.445312 -0.140625 -1.34375 C 0.578125 -2.25 1.210938 -3.367188 1.765625 -4.703125 C 2.847656 -7.273438 3.613281 -10.953125 4.0625 -15.734375 C 1.25 -15.242188 -1.171875 -16.460938 -3.203125 -19.390625 C -5.273438 -22.367188 -6.101562 -26.1875 -5.6875 -30.84375 C -5.25 -35.488281 -3.660156 -40.070312 -0.921875 -44.59375 C 1.984375 -49.46875 5.78125 -53.53125 10.46875 -56.78125 L 14.90625 -59.375 L 17.234375 -61.25 C 17.828125 -61.65625 18.203125 -61.742188 18.359375 -61.515625 C 18.546875 -61.242188 18.363281 -60.890625 17.8125 -60.453125 C 17.269531 -60.023438 16.757812 -59.65625 16.28125 -59.34375 C 15.8125 -59.03125 15.363281 -58.726562 14.9375 -58.4375 C 14.5625 -58 14.25 -57.601562 14 -57.25 L 13.203125 -56.109375 C 9.910156 -50.722656 8.28125 -41.921875 8.3125 -29.703125 C 8.300781 -25.554688 7.988281 -21.6875 7.375 -18.09375 L 7.5625 -18.234375 C 9.832031 -19.804688 11.710938 -22.191406 13.203125 -25.390625 C 14.703125 -28.640625 15.445312 -32.003906 15.4375 -35.484375 Z M 13.609375 -57.75 C 12.679688 -57.300781 11.695312 -56.710938 10.65625 -55.984375 C 9.613281 -55.265625 8.507812 -54.257812 7.34375 -52.96875 C 6.1875 -51.6875 5.085938 -50.25 4.046875 -48.65625 C 3.015625 -47.070312 2.066406 -45.382812 1.203125 -43.59375 C 0.335938 -41.8125 -0.410156 -40 -1.046875 -38.15625 C -1.691406 -36.3125 -2.207031 -34.488281 -2.59375 -32.6875 C -2.976562 -30.894531 -3.207031 -29.175781 -3.28125 -27.53125 C -3.4375 -24.0625 -2.890625 -21.421875 -1.640625 -19.609375 C 0.078125 -17.140625 2.003906 -16.113281 4.140625 -16.53125 C 4.359375 -19.78125 4.476562 -22.328125 4.5 -24.171875 C 4.675781 -32.960938 5.671875 -40.34375 7.484375 -46.3125 C 8.984375 -51.300781 11.023438 -55.113281 13.609375 -57.75 Z M 13.609375 -57.75 "/></g></g></g></svg>